<svg xmlns="http://www.w3.org/2000/svg" width="229.6" height="167.08" viewBox="0 0 229.6 167.08">
    <defs>
        <style>.\35 0dc798a-8e64-4208-8619-6f1cdb8affa8{fill:#796e65;}</style>
    </defs>
    <title>arrow</title>
    <path class="50dc798a-8e64-4208-8619-6f1cdb8affa8" d="M226.71,0.46C186-2.07,144.83,5.84,108.8,25.26,75.93,43,48.1,70,30.34,102.93a183.28,183.28,0,0,0-19.79,59c-0.58,3.78,5.2,5.4,5.79,1.6C27.86,88.89,86,30.62,158.44,12.42a223.08,223.08,0,0,1,68.27-6c3.86,0.24,3.84-5.76,0-6" transform="translate(0 0)"/>
    <path class="50dc798a-8e64-4208-8619-6f1cdb8affa8" d="M13.39,167.08a2.5,2.5,0,0,1-2.33-1.6c-3-7.73-8.44-16.52-9.86-18.17a2.5,2.5,0,0,1,.53-4.52c2-.63,3.09.21,7.29,7.36a107.09,107.09,0,0,1,5.4,10.41c3.7-2.8,7.6-5.27,9.86-6.65,7.28-4.45,8.16-4.35,8.87-4.28a2.59,2.59,0,0,1,1.74,1,2.5,2.5,0,0,1-1.62,4A109.81,109.81,0,0,0,15,166.5a2.5,2.5,0,0,1-1.6.58" transform="translate(0 0)"/>
</svg>
