<svg xmlns="http://www.w3.org/2000/svg" width="22.66" height="15.59" viewBox="0 0 22.66 15.59">
    <defs>
        <style>.cls-1{fill:none;}.cls-2{clip-path:url(#clip-path);}.cls-3{fill:#ce3262;}</style>
        <clipPath id="clip-path" transform="translate(0 0)">
            <rect class="cls-1" width="22.67" height="15.59"/>
        </clipPath>
    </defs>
    <title>carrousel-arrow</title>
    <g class="cls-2">
        <path class="cls-3" d="M9.19,15.59a2.84,2.84,0,0,1-.56-0.06,3.49,3.49,0,0,1-2.26-1.82L0.28,3.51a2,2,0,0,1,3.43-2L9.43,11c3.37-3.3,6.64-6.78,9.73-10.34a2,2,0,0,1,3.21,2.37L21.51,4.42a2,2,0,0,1-1,.82c-2.81,3.15-5.74,6.21-8.75,9.13a3.78,3.78,0,0,1-2.55,1.22" transform="translate(0 0)"/>
    </g>
</svg>
