<svg xmlns="http://www.w3.org/2000/svg" width="16" height="16" viewBox="0 0 16 16">
    <defs>
        <style>.\32 84b0e45-e9aa-4001-8795-21ea13439af3{fill:#6F5091;}</style>
    </defs>
    <title>clock</title>
    <path class="284b0e45-e9aa-4001-8795-21ea13439af3" d="M8,16a8,8,0,1,1,8-8,8,8,0,0,1-8,8M8,0.88A7.13,7.13,0,1,0,15.13,8,7.13,7.13,0,0,0,8,.88"/>
    <path class="284b0e45-e9aa-4001-8795-21ea13439af3" d="M10.87,8H8V3.79a0.53,0.53,0,0,0-1,0V8.55A1.06,1.06,0,0,0,7.7,9h3.17C11,9,11,8.72,11,8.55V8.43C11,8.26,11,8,10.87,8"/>
</svg>
