<svg xmlns="http://www.w3.org/2000/svg" width="20" height="13.54" viewBox="0 0 20 13.54">
    <defs>
        <style>.\31 f8b40bf-fdfb-470d-b80b-4d4fb82f5b71{fill:#4b783d;}</style>
    </defs>
    <title>mail</title>
    <path class="1f8b40bf-fdfb-470d-b80b-4d4fb82f5b71" d="M19.8,2.36L10.29,6.84a0.7,0.7,0,0,1-.59,0L0.18,2.36A0.32,0.32,0,0,1,0,2.07V0.32A0.32,0.32,0,0,1,.33,0H19.66A0.32,0.32,0,0,1,20,.32V2.07a0.32,0.32,0,0,1-.18.29"/>
    <path class="1f8b40bf-fdfb-470d-b80b-4d4fb82f5b71" d="M19.67,13.54H0.34A0.33,0.33,0,0,1,0,13.21v-9a0.33,0.33,0,0,1,.48-0.3L9.86,8.53a0.33,0.33,0,0,0,.29,0l9.37-4.62a0.33,0.33,0,0,1,.48.3v9a0.33,0.33,0,0,1-.33.33"/>
</svg>
