<svg xmlns="http://www.w3.org/2000/svg" width="15.48" height="20" viewBox="0 0 15.48 20">
    <defs>
        <style>.\37 f1f06a8-e442-4c17-ad47-17af07bcf7b7{fill:#4b783d;}</style>
    </defs>
    <title>pinterest</title>
    <path class="7f1f06a8-e442-4c17-ad47-17af07bcf7b7" d="M9.28,14.45A3.29,3.29,0,0,1,6.48,13s-0.67,2.65-.81,3.16A12.26,12.26,0,0,1,3.6,19.94a0.15,0.15,0,0,1-.27-0.07,12.87,12.87,0,0,1,0-4.36L4.84,9.25a4.41,4.41,0,0,1-.37-1.82c0-1.7,1-3,2.22-3A1.54,1.54,0,0,1,8.23,6.18a24.58,24.58,0,0,1-1,4.08A1.78,1.78,0,0,0,9,12.47c2.18,0,3.64-2.8,3.64-6.11C12.67,3.85,11,2,7.89,2a5.44,5.44,0,0,0-5.66,5.5A3.31,3.31,0,0,0,3,9.72a0.56,0.56,0,0,1,.16.64l-0.23.92a0.4,0.4,0,0,1-.57.29C0.75,10.91,0,9.15,0,7.18,0,3.91,2.75,0,8.21,0c4.39,0,7.27,3.17,7.27,6.58,0,4.51-2.51,7.87-6.2,7.87"/>
</svg>
