<svg xmlns="http://www.w3.org/2000/svg" width="20" height="18.95" viewBox="0 0 20 18.95">
    <defs>
        <style>.b4036228-427b-4a76-9655-58e524d7b0b6{fill:#4b783d;}.d15943fb-1c29-43e1-9348-0ad0d7c25197{fill:#fff;}</style>
    </defs>
    <title>print</title>
    <path class="b4036228-427b-4a76-9655-58e524d7b0b6" d="M18.86,14.85H15l0-4.21-9.84,0v4.17H1a1.06,1.06,0,0,1-1-1.07V9.13C0,5.75,2.74,3.64,6.12,3.64h8.74A5.14,5.14,0,0,1,20,8.79v5a1.09,1.09,0,0,1-1.14,1.07"/>
    <path class="d15943fb-1c29-43e1-9348-0ad0d7c25197" d="M15.61,8.35h-2a0.57,0.57,0,0,1-.57-0.57V7.36a0.57,0.57,0,0,1,.57-0.57h2a0.57,0.57,0,0,1,.57.57V7.78a0.57,0.57,0,0,1-.57.57"/>
    <path class="b4036228-427b-4a76-9655-58e524d7b0b6" d="M16.26,5.37H4.32V0H16.26V5.37ZM6,3.68h8.56v-2H6v2Z"/>
    <path class="b4036228-427b-4a76-9655-58e524d7b0b6" d="M15.42,19H9.14L4.6,14.87V10.28H15.42V19ZM9.57,17.83H14.3V11.41H5.73v3Z"/>
    <polygon class="b4036228-427b-4a76-9655-58e524d7b0b6" points="10.37 18.39 9.24 18.39 9.24 14.67 5.16 14.67 5.16 13.54 10.37 13.54 10.37 18.39"/>
</svg>
