<svg xmlns="http://www.w3.org/2000/svg" width="20" height="16.25" viewBox="0 0 20 16.25">
    <defs>
        <style>.\39 5cf70ba-3f85-4bec-b777-53c8ff8be258{fill:#4b783d;}</style>
    </defs>
    <title>twitter</title>
    <path class="95cf70ba-3f85-4bec-b777-53c8ff8be258" d="M18,4A11.61,11.61,0,0,1,6.29,16.25,11.62,11.62,0,0,1,0,14.41a8.25,8.25,0,0,0,6.07-1.7A4.11,4.11,0,0,1,2.24,9.86,4.13,4.13,0,0,0,4.1,9.79,4.11,4.11,0,0,1,.8,5.72a4.09,4.09,0,0,0,1.86.51A4.11,4.11,0,0,1,1.39.75,11.65,11.65,0,0,0,9.85,5a4.11,4.11,0,0,1,7-3.74,8.22,8.22,0,0,0,2.6-1,4.11,4.11,0,0,1-1.8,2.27A8.21,8.21,0,0,0,20,1.92,8.34,8.34,0,0,1,18,4"/>
</svg>
