<svg xmlns="http://www.w3.org/2000/svg" width="183.79" height="1023.06" viewBox="0 0 183.79 1023.06">
    <defs>
        <style>.faeebe08-5ef4-404a-86e9-524724e329c5{fill:none;}.\36 bf63676-0ddc-4205-9719-ed0d910200fb{clip-path:url(#866c51f8-4a83-48cf-8b85-867582749a14);}.\35 716340e-51c5-4f7c-b6b6-01a4c1b9155c{fill:#cc291c;}</style>
        <clipPath id="866c51f8-4a83-48cf-8b85-867582749a14" transform="translate(0 0)">
            <rect class="faeebe08-5ef4-404a-86e9-524724e329c5" width="183.79" height="1023.06"/>
        </clipPath>
    </defs>
    <title>storyline</title>
    <g class="6bf63676-0ddc-4205-9719-ed0d910200fb">
        <path class="5716340e-51c5-4f7c-b6b6-01a4c1b9155c"
              d="M139.87,1023.06a1,1,0,0,1-.61-1.79c2.07-1.6,4.12-3.31,6.08-5.08a1,1,0,0,1,1.34,1.48c-2,1.8-4.08,3.55-6.19,5.18a1,1,0,0,1-.61.21m11.86-10.71a1,1,0,0,1-.72-1.69c1.8-1.9,3.57-3.89,5.25-5.94a1,1,0,0,1,1.55,1.27c-1.71,2.08-3.51,4.12-5.34,6a1,1,0,0,1-.72.31M161.87,1000a1,1,0,0,1-.82-1.58c1.51-2.14,3-4.37,4.34-6.63a1,1,0,1,1,1.71,1c-1.39,2.3-2.88,4.57-4.42,6.75a1,1,0,0,1-.82.42m8.28-13.68a1,1,0,0,1-.89-1.46c1.2-2.33,2.33-4.75,3.38-7.17a1,1,0,0,1,1.84.79c-1.06,2.47-2.22,4.92-3.44,7.3a1,1,0,0,1-.89.54m6.3-14.69a1,1,0,0,1-.94-1.33c0.87-2.49,1.66-5,2.35-7.57a1,1,0,0,1,1.93.53c-0.7,2.58-1.51,5.17-2.39,7.7a1,1,0,0,1-.94.67m4.21-15.42-0.19,0a1,1,0,0,1-.79-1.17c0.51-2.59.94-5.22,1.27-7.83a1,1,0,0,1,2,.25c-0.33,2.65-.77,5.33-1.29,8a1,1,0,0,1-1,.8m2-15.55H182.6a1.13,1.13,0,0,1-.95-1.21c0.1-1.84.14-3.78,0.14-5.6,0-.8,0-1.64,0-2.44a1,1,0,1,1,2-.08c0,0.82,0,1.63,0,2.44,0,1.85,0,3.9-.15,5.78a1.15,1.15,0,0,1-1,1.1m-0.37-16.29a1,1,0,0,1-1-.9c-0.24-2.39-.56-4.8-1-7.15l-0.12-.7a1,1,0,1,1,2-.35l0.13,0.71c0.41,2.4.75,4.85,1,7.29a1,1,0,0,1-.9,1.09h-0.1m-2.79-15.74a1,1,0,0,1-1-.76c-0.63-2.5-1.36-5.07-2.18-7.63a1,1,0,1,1,1.91-.61c0.83,2.6,1.57,5.21,2.21,7.75a1,1,0,0,1-.72,1.21,1,1,0,0,1-.25,0m-4.82-15.24a1,1,0,0,1-.93-0.65c-0.91-2.41-1.92-4.89-3-7.37a1,1,0,0,1,1.84-.79c1.09,2.51,2.1,5,3,7.45a1,1,0,0,1-.94,1.35m-6.33-14.69a1,1,0,0,1-.9-0.57c-1.1-2.3-2.3-4.7-3.57-7.13a1,1,0,1,1,1.78-.92c1.27,2.45,2.48,4.86,3.59,7.18a1,1,0,0,1-.9,1.43M161,864.48a1,1,0,0,1-.88-0.52c-1.16-2.1-2.37-4.26-3.71-6.59l-0.21-.37a1,1,0,1,1,1.73-1l0.21,0.37c1.35,2.34,2.57,4.5,3.73,6.62a1,1,0,0,1-.87,1.48m-8-13.87a1,1,0,0,1-.86-0.49q-2-3.43-4.13-6.83a1,1,0,1,1,1.7-1q2.1,3.41,4.15,6.86a1,1,0,0,1-.86,1.51M144.62,837a1,1,0,0,1-.84-0.46q-2.14-3.37-4.33-6.71a1,1,0,1,1,1.67-1.09q2.2,3.35,4.35,6.73a1,1,0,0,1-.84,1.54m-8.77-13.38a1,1,0,0,1-.83-0.44q-2.24-3.31-4.52-6.58a1,1,0,0,1,1.64-1.15q2.29,3.29,4.54,6.61a1,1,0,0,1-.27,1.39,1,1,0,0,1-.56.17m-9.16-13.12a1,1,0,0,1-.81-0.42q-2.33-3.24-4.71-6.45a1,1,0,1,1,1.61-1.19q2.38,3.22,4.72,6.47a1,1,0,0,1-.81,1.58m-9.53-12.85a1,1,0,0,1-.8-0.39q-2.42-3.17-4.89-6.31a1,1,0,0,1,1.57-1.24q2.48,3.15,4.91,6.33a1,1,0,0,1-.79,1.61m-9.9-12.57a1,1,0,0,1-.78-0.37l-0.5-.61q-2.27-2.79-4.58-5.57a1,1,0,0,1,1.54-1.28q2.31,2.78,4.6,5.58l0.49,0.6a1,1,0,0,1-.77,1.63M97,772.75a1,1,0,0,1-.76-0.35l-5.17-6.1a1,1,0,1,1,1.52-1.3l5.18,6.1a1,1,0,0,1-.76,1.65m-10.35-12.2a1,1,0,0,1-.76-0.35q-2.59-3.06-5.16-6.12a1,1,0,0,1,1.54-1.28q2.56,3.07,5.15,6.12a1,1,0,0,1-.76,1.65M76.44,748.26a1,1,0,0,1-.78-0.37q-2.54-3.11-5-6.25a1,1,0,0,1,1.57-1.24q2.47,3.13,5,6.22a1,1,0,0,1-.77,1.63M66.53,735.7a1,1,0,0,1-.8-0.4c-1.66-2.19-3.26-4.36-4.76-6.46a1,1,0,0,1,1.63-1.16c1.49,2.08,3.08,4.24,4.73,6.42a1,1,0,0,1-.8,1.6m-9.31-13a1,1,0,0,1-.83-0.44c-1.52-2.27-3-4.54-4.36-6.75a1,1,0,1,1,1.7-1.05c1.36,2.19,2.81,4.44,4.32,6.69a1,1,0,0,1-.83,1.56m-8.42-13.6a1,1,0,0,1-.87-0.51c-1.32-2.35-2.6-4.74-3.79-7.1a1,1,0,1,1,1.79-.9c1.17,2.33,2.43,4.69,3.74,7A1,1,0,0,1,49.3,709a1,1,0,0,1-.49.13M41.62,694.8a1,1,0,0,1-.91-0.6c-1.1-2.47-2.13-5-3.07-7.44A1,1,0,1,1,39.5,686c0.93,2.43,1.95,4.91,3,7.34a1,1,0,0,1-.91,1.41m-5.69-14.95a1,1,0,0,1-1-.7c-0.82-2.58-1.56-5.19-2.2-7.76a1,1,0,1,1,1.94-.48c0.63,2.52,1.36,5.09,2.16,7.63a1,1,0,0,1-.65,1.26,1,1,0,0,1-.3,0m-3.86-15.51a1,1,0,0,1-1-.83c-0.48-2.67-.86-5.36-1.13-8a1,1,0,1,1,2-.21c0.27,2.58.64,5.22,1.11,7.85a1,1,0,0,1-.81,1.16l-0.18,0m-1.63-15.69a1.09,1.09,0,0,1-1-1.08c0-.77,0-1.58,0-2.35,0-1.93.06-3.9,0.18-5.81a1,1,0,0,1,1.06-1,1,1,0,0,1,.94,1.05c-0.11,1.86-.17,3.77-0.17,5.66,0,0.75,0,1.6,0,2.35a1.09,1.09,0,0,1-1,1.13h0Zm1-16.16H31.28a1,1,0,0,1-.84-1.14c0.4-2.64.92-5.3,1.56-7.93a1,1,0,1,1,1.94.47c-0.62,2.57-1.13,5.18-1.53,7.76a1,1,0,0,1-1,.85M35.17,617a1,1,0,0,1-.31-0.05,1,1,0,0,1-.64-1.26c0.83-2.51,1.78-5,2.83-7.56a1,1,0,1,1,1.85.77c-1,2.46-2,5-2.77,7.42a1,1,0,0,1-.95.69M41.3,602.2a1,1,0,0,1-.89-1.45c1.17-2.35,2.46-4.73,3.83-7.09a1,1,0,1,1,1.73,1c-1.35,2.33-2.62,4.67-3.78,7a1,1,0,0,1-.9.55m8-13.84a1,1,0,0,1-.83-1.55c1.44-2.19,3-4.42,4.58-6.62a1,1,0,1,1,1.62,1.18c-1.58,2.18-3.11,4.38-4.53,6.54a1,1,0,0,1-.84.45m9.4-12.95a1,1,0,0,1-.78-1.62c1.62-2,3.34-4.12,5.12-6.2a1,1,0,1,1,1.52,1.3C62.81,570.95,61.1,573,59.5,575a1,1,0,0,1-.78.38m10.39-12.16a1,1,0,0,1-.74-1.67c1.75-1.91,3.6-3.89,5.49-5.85a1,1,0,1,1,1.44,1.39c-1.88,2-3.72,3.91-5.46,5.81a1,1,0,0,1-.74.33M80.2,551.71a1,1,0,0,1-.7-1.71q2.84-2.82,5.72-5.61a1,1,0,1,1,1.39,1.44q-2.87,2.78-5.71,5.59a1,1,0,0,1-.71.29m11.48-11.14a1,1,0,0,1-.69-1.72l5.79-5.52a1,1,0,0,1,1.38,1.45l-5.79,5.52a1,1,0,0,1-.69.28m11.58-11.05a1,1,0,0,1-.69-1.72q2.88-2.77,5.73-5.57a1,1,0,0,1,1.4,1.43q-2.85,2.81-5.74,5.58a1,1,0,0,1-.69.28m11.4-11.23a1,1,0,0,1-.71-1.7c2-2,3.79-3.9,5.53-5.75a1,1,0,0,1,1.46,1.37c-1.75,1.86-3.57,3.75-5.56,5.78a1,1,0,0,1-.71.3m10.93-11.67a1,1,0,0,1-.75-1.66c1.81-2,3.55-4.08,5.17-6.05a1,1,0,0,1,1.54,1.27c-1.64,2-3.4,4-5.22,6.11a1,1,0,0,1-.75.34m10.15-12.36a1,1,0,0,1-.8-1.6c1.63-2.16,3.19-4.33,4.64-6.46a1,1,0,0,1,1.65,1.13c-1.47,2.15-3,4.35-4.7,6.53a1,1,0,0,1-.8.4m9-13.22a1,1,0,0,1-.85-1.52c1.36-2.25,2.68-4.57,3.92-6.91a1,1,0,0,1,1.77.94c-1.26,2.37-2.59,4.72-4,7a1,1,0,0,1-.86.48m7.5-14.12a1,1,0,0,1-.91-1.42c1.1-2.39,2.15-4.84,3.13-7.3a1,1,0,0,1,1.86.74c-1,2.49-2.05,5-3.17,7.4a1,1,0,0,1-.91.58m5.9-14.86a1,1,0,0,1-.95-1.32c0.84-2.5,1.62-5.06,2.32-7.6a1,1,0,1,1,1.93.53c-0.71,2.58-1.5,5.17-2.35,7.7a1,1,0,0,1-.95.68m4.26-15.42-0.22,0a1,1,0,0,1-.76-1.19c0.57-2.58,1.07-5.21,1.5-7.8a1,1,0,0,1,2,.33c-0.43,2.63-.95,5.29-1.52,7.91a1,1,0,0,1-1,.79m2.6-15.78h-0.11a1,1,0,0,1-.89-1.1c0.29-2.63.51-5.3,0.67-7.92a1,1,0,0,1,1.06-.94,1,1,0,0,1,.94,1.06c-0.15,2.66-.38,5.36-0.67,8a1,1,0,0,1-1,.89m0.91-16.2h0a0.72,0.72,0,0,1-.86-0.77v-0.53c0-2.46-.13-5-0.25-7.41a1,1,0,0,1,.91-1,1,1,0,0,1,1.1.95c0.13,2.49.24,5,.24,7.51v0.54a1,1,0,0,1-1.13.76m-0.81-15.74a1,1,0,0,1-1-.89c-0.28-2.63-.63-5.28-1.05-7.87a1,1,0,0,1,2-.32c0.42,2.63.78,5.32,1.07,8a1,1,0,0,1-.89,1.1H165.1m-2.56-15.78a1,1,0,0,1-1-.78c-0.33-1.49-.68-3-1.05-4.44q-0.42-1.64-.87-3.27a1,1,0,1,1,1.93-.54q0.46,1.65.88,3.31c0.38,1.48.74,3,1.07,4.5a1,1,0,0,1-.76,1.19l-0.22,0m-4.29-15.4a1,1,0,0,1-.95-0.68c-0.83-2.47-1.74-5-2.7-7.48a1,1,0,0,1,1.87-.72c1,2.52,1.9,5.07,2.74,7.56a1,1,0,0,1-.95,1.32m-5.77-14.91a1,1,0,0,1-.92-0.6c-1-2.38-2.16-4.81-3.33-7.23a1,1,0,1,1,1.8-.87c1.18,2.44,2.31,4.89,3.37,7.3a1,1,0,0,1-.92,1.4m-7-14.41a1,1,0,0,1-.89-0.53c-1.2-2.29-2.49-4.64-3.82-7a1,1,0,1,1,1.74-1c1.34,2.37,2.64,4.74,3.85,7a1,1,0,0,1-.88,1.47m-7.86-13.93a1,1,0,0,1-.86-0.49c-1.31-2.18-2.71-4.47-4.18-6.8a1,1,0,1,1,1.69-1.06c1.47,2.34,2.88,4.64,4.2,6.83a1,1,0,0,1-.86,1.51m-8.51-13.55a1,1,0,0,1-.84-0.45q-2.19-3.34-4.42-6.65a1,1,0,1,1,1.66-1.12q2.24,3.32,4.44,6.67a1,1,0,0,1-.84,1.55m-8.93-13.27a1,1,0,0,1-.82-0.43q-2.27-3.29-4.57-6.56a1,1,0,0,1,1.64-1.15q2.3,3.27,4.58,6.57a1,1,0,0,1-.82,1.57M111,274.57a1,1,0,0,1-.81-0.42q-2.33-3.25-4.69-6.47a1,1,0,0,1,1.61-1.18q2.37,3.23,4.71,6.48a1,1,0,0,1-.81,1.58m-9.46-12.9a1,1,0,0,1-.8-0.4q-2.39-3.2-4.82-6.37a1,1,0,0,1,1.59-1.21q2.43,3.18,4.83,6.39a1,1,0,0,1-.8,1.6m-9.71-12.71a1,1,0,0,1-.79-0.39q-2.46-3.15-4.94-6.28A1,1,0,0,1,87.66,241q2.49,3.14,5,6.29a1,1,0,0,1-.79,1.61m-10-12.52a1,1,0,0,1-.78-0.37Q78.58,233,76,229.88a1,1,0,1,1,1.54-1.28q2.55,3.09,5.08,6.2a1,1,0,0,1-.78,1.63M71.67,224.1a1,1,0,0,1-.76-0.35q-2.58-3.05-5.18-6.08a1,1,0,0,1,1.52-1.3q2.61,3,5.2,6.09a1,1,0,0,1-.76,1.64M61.23,212a1,1,0,0,1-.75-0.34l-5.29-6a1,1,0,1,1,1.5-1.32l5.29,6a1,1,0,0,1-.75,1.66M50.65,200a1,1,0,0,1-.75-0.34q-2.64-3-5.26-6a1,1,0,1,1,1.51-1.31q2.61,3,5.25,6a1,1,0,0,1-.75,1.66M40.21,187.84a1,1,0,0,1-.77-0.36c-1.81-2.16-3.48-4.19-5.09-6.2A1,1,0,0,1,35.91,180c1.6,2,3.26,4,5.06,6.17a1,1,0,0,1-.77,1.64m-10-12.49a1,1,0,0,1-.8-0.4c-1.67-2.2-3.26-4.37-4.75-6.48a1,1,0,0,1,1.63-1.15c1.47,2.08,3.06,4.24,4.71,6.42a1,1,0,0,1-.8,1.6M21,162.28a1,1,0,0,1-.84-0.46c-1.49-2.29-2.9-4.6-4.21-6.85a1,1,0,1,1,1.73-1c1.3,2.23,2.7,4.51,4.16,6.77a1,1,0,0,1-.84,1.54m-8-13.83a1,1,0,0,1-.89-0.55c-1.24-2.43-2.39-4.89-3.43-7.29a1,1,0,0,1,1.84-.79c1,2.37,2.16,4.78,3.38,7.18a1,1,0,0,1-.44,1.34,1,1,0,0,1-.45.11M6.65,133.77a1,1,0,0,1-.94-0.67c-0.9-2.56-1.7-5.15-2.39-7.71a1,1,0,0,1,1.93-.52c0.68,2.51,1.47,5.06,2.35,7.57A1,1,0,0,1,7,133.72a1,1,0,0,1-.33.06M2.52,118.33a1,1,0,0,1-1-.82c-0.48-2.63-.85-5.32-1.1-8a1,1,0,1,1,2-.19c0.25,2.63.61,5.27,1.08,7.84a1,1,0,0,1-.81,1.16l-0.18,0M1,102.65a1.11,1.11,0,0,1-1-1.1c0-.38,0-0.82,0-1.2,0-2.29.08-4.66,0.24-7a1,1,0,0,1,1.07-.94,1,1,0,0,1,.93,1.06C2.08,95.76,2,98,2,100.29c0,0.37,0,.86,0,1.23a1.1,1.1,0,0,1-1,1.13H1Zm1.1-16.18H2a1,1,0,0,1-.84-1.14c0.4-2.65.9-5.32,1.51-7.93a1,1,0,0,1,1.95.45C4,80.41,3.49,83,3.1,85.62a1,1,0,0,1-1,.85M5.7,70.9a1,1,0,0,1-.3,0,1,1,0,0,1-.65-1.25C5.55,67,6.46,64.48,7.46,62a1,1,0,0,1,1.86.75c-1,2.44-1.88,4.95-2.66,7.46a1,1,0,0,1-1,.7m6-14.83a1,1,0,0,1-.9-1.45c1.19-2.41,2.5-4.79,3.87-7.09a1,1,0,0,1,1.72,1c-1.35,2.25-2.62,4.59-3.8,6.95a1,1,0,0,1-.9.56m8.22-13.71a1,1,0,0,1-.81-1.58c1.57-2.19,3.24-4.33,5-6.37a1,1,0,1,1,1.52,1.3c-1.7,2-3.33,4.09-4.87,6.24a1,1,0,0,1-.81.42M30.24,30.2a1,1,0,0,1-.7-1.71l1.22-1.18c1.53-1.46,3.14-2.89,4.77-4.25a1,1,0,1,1,1.28,1.54c-1.6,1.33-3.17,2.73-4.67,4.15l-1.19,1.16a1,1,0,0,1-.7.29M42.53,20A1,1,0,0,1,42,18.16c2.19-1.53,4.48-3,6.81-4.34a1,1,0,1,1,1,1.73c-2.28,1.33-4.53,2.76-6.68,4.25a1,1,0,0,1-.57.18m13.82-8a1,1,0,0,1-.43-1.9c2.41-1.15,4.91-2.23,7.42-3.19a1,1,0,1,1,.72,1.87c-2.46.94-4.91,2-7.27,3.13a1,1,0,0,1-.43.1M71.27,6.22a1,1,0,0,1-.28-2c2.57-.76,5.2-1.43,7.82-2a1,1,0,0,1,.42,2c-2.57.55-5.15,1.21-7.67,2a1,1,0,0,1-.28,0m55.26-.64a1,1,0,0,1-.28,0c-2.51-.72-5.1-1.34-7.69-1.84a1,1,0,0,1,.38-2c2.65,0.51,5.29,1.14,7.86,1.88a1,1,0,0,1-.27,2M86.9,2.87a1,1,0,0,1-.13-2c2.66-.36,5.37-0.61,8-0.76a1,1,0,0,1,.11,2C92.3,2.26,89.64,2.51,87,2.86H86.9m23.94-.34h-0.11c-2.61-.28-5.26-0.46-7.9-0.52a1,1,0,0,1-1-1,1,1,0,0,1,1-1c2.69,0.07,5.4.25,8.06,0.53a1,1,0,0,1-.11,2"
              transform="translate(0 0)"/>
    </g>
</svg>
